<svg width="26" height="26" viewBox="0 0 26 26" fill="none" xmlns="http://www.w3.org/2000/svg">
<path fill-rule="evenodd" clip-rule="evenodd" d="M4.78204 19.3472C4.96811 19.2389 5.18957 19.2089 5.39777 19.2637C5.60597 19.3186 5.7839 19.4538 5.89246 19.6398C6.78838 21.1759 8.15771 22.3373 9.84663 23.0913C9.94408 23.1347 10.032 23.1969 10.1054 23.2744C10.1788 23.3518 10.2362 23.443 10.2744 23.5426C10.3126 23.6423 10.3308 23.7485 10.3279 23.8551C10.3251 23.9618 10.3012 24.0668 10.2578 24.1643C10.2143 24.2617 10.1521 24.3497 10.0746 24.4231C9.99716 24.4965 9.90602 24.5539 9.80638 24.5921C9.70674 24.6303 9.60055 24.6484 9.49389 24.6456C9.38722 24.6427 9.28216 24.6189 9.18471 24.5754C7.22171 23.699 5.57613 22.3221 4.48954 20.4588C4.43574 20.3666 4.40062 20.2647 4.38621 20.1589C4.37179 20.0532 4.37835 19.9456 4.40551 19.8424C4.43267 19.7392 4.47991 19.6423 4.54451 19.5574C4.60912 19.4724 4.68983 19.401 4.78204 19.3472ZM20.4817 4.24883C19.3832 3.1265 17.8167 2.71375 16.2827 3.14925C16.0782 3.20005 15.8619 3.16938 15.6795 3.06371C15.4971 2.95804 15.363 2.78565 15.3053 2.58292C15.2477 2.38019 15.2711 2.16299 15.3706 1.97718C15.4701 1.79138 15.6379 1.6515 15.8385 1.58708C17.938 0.989084 20.1231 1.56 21.643 3.11242C21.7903 3.26708 21.8708 3.47352 21.867 3.68707C21.8633 3.90061 21.7756 4.10408 21.6229 4.25346C21.4703 4.40283 21.2649 4.4861 21.0514 4.48523C20.8378 4.48437 20.6331 4.39944 20.4817 4.24883ZM12.1227 3.58367C11.8909 3.18608 11.2149 2.9445 10.5291 3.33775C9.84446 3.72775 9.72421 4.41783 9.95279 4.80783L12.6882 9.50083C12.7934 9.68684 12.8212 9.90682 12.7653 10.1131C12.7095 10.3194 12.5747 10.4954 12.39 10.603C12.2054 10.7106 11.9858 10.741 11.7788 10.6878C11.5718 10.6346 11.3941 10.502 11.2842 10.3188L7.63771 4.0625C7.40588 3.66492 6.72988 3.42333 6.04304 3.81658C5.35946 4.20658 5.23921 4.89667 5.46671 5.28667L9.57146 12.3251C9.62524 12.4173 9.66033 12.5191 9.67473 12.6249C9.68914 12.7306 9.68257 12.8382 9.65541 12.9414C9.62825 13.0446 9.58102 13.1415 9.51643 13.2264C9.45184 13.3114 9.37115 13.3828 9.27896 13.4366C9.18677 13.4904 9.08489 13.5255 8.97914 13.5399C8.87339 13.5543 8.76584 13.5477 8.66263 13.5205C8.55942 13.4934 8.46257 13.4461 8.3776 13.3816C8.29264 13.317 8.22124 13.2363 8.16746 13.1441L6.34204 10.0154C6.11021 9.61783 5.43421 9.37625 4.74846 9.7695C4.06379 10.1595 3.94354 10.8485 4.17213 11.2396L8.27579 18.278C10.0189 21.2669 14.3208 22.2365 17.9673 20.1522C21.6138 18.0678 22.9084 13.9078 21.1696 10.9254L18.4331 6.2335C18.2013 5.83592 17.5253 5.59433 16.8395 5.9865C16.1549 6.37758 16.0346 7.06658 16.2632 7.45767L18.0865 10.5853C18.1407 10.6779 18.1761 10.7805 18.1904 10.8869C18.2048 10.9933 18.198 11.1016 18.1703 11.2053C18.1426 11.3091 18.0946 11.4063 18.029 11.4914C17.9635 11.5765 17.8818 11.6478 17.7885 11.7011C16.117 12.6544 15.6045 14.5015 16.3369 15.756C16.3907 15.8482 16.4257 15.9501 16.4401 16.0558C16.4546 16.1616 16.448 16.2691 16.4208 16.3723C16.3937 16.4755 16.3464 16.5724 16.2818 16.6574C16.2173 16.7423 16.1366 16.8137 16.0444 16.8675C15.9522 16.9213 15.8503 16.9564 15.7446 16.9708C15.6388 16.9852 15.5313 16.9786 15.428 16.9515C15.3248 16.9243 15.228 16.8771 15.143 16.8125C15.0581 16.7479 14.9867 16.6672 14.9329 16.575C13.9438 14.8796 14.3435 12.8375 15.6208 11.3945C15.9783 10.9915 16.0996 10.4043 15.8288 9.9385L12.1227 3.58367Z" fill="#91B640"/>
</svg>
