<svg width="4" height="17" viewBox="0 0 4 17" fill="none" xmlns="http://www.w3.org/2000/svg">
<path d="M1.88308 2.71368C1.19224 2.71368 0.628906 2.15452 0.628906 1.46368C0.628906 0.772851 1.18474 0.213684 1.87474 0.213684H1.88308C2.57391 0.213684 3.13308 0.772851 3.13308 1.46368C3.13308 2.15452 2.57391 2.71368 1.88308 2.71368ZM3.13308 8.13035C3.13308 7.43952 2.57391 6.88035 1.88308 6.88035H1.87474C1.18474 6.88035 0.628906 7.43952 0.628906 8.13035C0.628906 8.82118 1.19224 9.38035 1.88308 9.38035C2.57391 9.38035 3.13308 8.82118 3.13308 8.13035ZM3.13308 14.797C3.13308 14.1062 2.57391 13.547 1.88308 13.547H1.87474C1.18474 13.547 0.628906 14.1062 0.628906 14.797C0.628906 15.4879 1.19224 16.047 1.88308 16.047C2.57391 16.047 3.13308 15.4879 3.13308 14.797Z" fill="#1B270C"/>
</svg>
