<svg width="135" height="46" viewBox="0 0 135 46" fill="none" xmlns="http://www.w3.org/2000/svg">
<path fill-rule="evenodd" clip-rule="evenodd" d="M129.296 0.72998C132.405 0.72998 134.924 2.73574 134.924 5.20998C134.924 7.68422 132.405 9.68998 129.296 9.68998H97.1363C100.245 9.68998 102.764 11.6957 102.764 14.17C102.764 16.6442 100.245 18.65 97.1363 18.65H114.824C117.933 18.65 120.452 20.6557 120.452 23.13C120.452 25.6042 117.933 27.61 114.824 27.61H106.644C102.725 27.61 99.5483 29.6157 99.5483 32.09C99.5483 33.7395 101.156 35.2328 104.372 36.57C107.481 36.57 110 38.5757 110 41.05C110 43.5242 107.481 45.53 104.372 45.53H37.6403C34.532 45.53 32.0123 43.5242 32.0123 41.05C32.0123 38.5757 34.532 36.57 37.6403 36.57H6.28425C3.17599 36.57 0.65625 34.5642 0.65625 32.09C0.65625 29.6157 3.17599 27.61 6.28425 27.61H38.4443C41.5525 27.61 44.0723 25.6042 44.0723 23.13C44.0723 20.6557 41.5525 18.65 38.4443 18.65H18.3442C15.236 18.65 12.7163 16.6442 12.7163 14.17C12.7163 11.6957 15.236 9.68998 18.3442 9.68998H50.5042C47.396 9.68998 44.8763 7.68422 44.8763 5.20998C44.8763 2.73574 47.396 0.72998 50.5042 0.72998H129.296ZM129.296 18.65C132.405 18.65 134.924 20.6557 134.924 23.13C134.924 25.6042 132.405 27.61 129.296 27.61C126.188 27.61 123.668 25.6042 123.668 23.13C123.668 20.6557 126.188 18.65 129.296 18.65Z" fill="#EBECE9"/>
</svg>
