<svg width="16" height="16" viewBox="0 0 16 16" fill="none" xmlns="http://www.w3.org/2000/svg">
<path d="M15.1595 1.46368V5.63035C15.1595 5.97535 14.8795 6.25535 14.5345 6.25535C14.1895 6.25535 13.9095 5.97535 13.9095 5.63035V2.97288L7.4762 9.40619C7.35453 9.52786 7.19451 9.5895 7.0345 9.5895C6.87451 9.5895 6.71448 9.52869 6.59281 9.40619C6.34865 9.16202 6.34865 8.76616 6.59281 8.52199L13.0261 2.08868H10.3678C10.0228 2.08868 9.74284 1.80868 9.74284 1.46368C9.74284 1.11868 10.0228 0.838684 10.3678 0.838684H14.5345C14.6162 0.838684 14.6971 0.855439 14.7738 0.887105C14.9263 0.950439 15.0479 1.07211 15.1121 1.22544C15.1429 1.30128 15.1595 1.38202 15.1595 1.46368ZM14.5345 8.33868C14.1895 8.33868 13.9095 8.61868 13.9095 8.96368V12.297C13.9095 13.6112 13.3487 14.172 12.0345 14.172H3.70117C2.38701 14.172 1.82617 13.6112 1.82617 12.297V3.96368C1.82617 2.64952 2.38701 2.08868 3.70117 2.08868H7.0345C7.37951 2.08868 7.6595 1.80868 7.6595 1.46368C7.6595 1.11868 7.37951 0.838684 7.0345 0.838684H3.70117C1.68617 0.838684 0.576172 1.94868 0.576172 3.96368V12.297C0.576172 14.312 1.68617 15.422 3.70117 15.422H12.0345C14.0495 15.422 15.1595 14.312 15.1595 12.297V8.96368C15.1595 8.61868 14.8795 8.33868 14.5345 8.33868Z" fill="#1B270C"/>
</svg>
