<svg width="55" height="75" viewBox="0 0 55 75" fill="none" xmlns="http://www.w3.org/2000/svg">
<path fill-rule="evenodd" clip-rule="evenodd" d="M43.6068 7.79395H50.9268C52.2589 7.79395 53.3388 8.86846 53.3388 10.1939V70.5136C53.3388 71.8391 52.2589 72.9136 50.9268 72.9136H3.94325C2.61114 72.9136 1.53125 71.8391 1.53125 70.5136V10.1939C1.53125 8.86846 2.61114 7.79395 3.94325 7.79395H10.4862" fill="white"/>
<path d="M43.6068 7.79395H50.9268C52.2589 7.79395 53.3388 8.86846 53.3388 10.1939V70.5136C53.3388 71.8391 52.2589 72.9136 50.9268 72.9136H3.94325C2.61114 72.9136 1.53125 71.8391 1.53125 70.5136V10.1939C1.53125 8.86846 2.61114 7.79395 3.94325 7.79395H10.4862H43.6068Z" stroke="#7E8379" stroke-width="2.5" stroke-linecap="round"/>
<path d="M43.6068 7.79395H50.9268C52.2589 7.79395 53.3388 8.86846 53.3388 10.1939V70.5136C53.3388 71.8391 52.2589 72.9136 50.9268 72.9136H3.94325C2.61114 72.9136 1.53125 71.8391 1.53125 70.5136V10.1939C1.53125 8.86846 2.61114 7.79395 3.94325 7.79395H10.4862H11.2618" stroke="#7E8379" stroke-width="2.5" stroke-linecap="round"/>
<path d="M5.99316 11.6125H12.6689C13.3758 13.716 15.37 15.2307 17.7188 15.2307H21.3174C22.3316 34.1909 33.2283 50.5371 48.9717 59.2678L48.9727 67.9124C48.9727 68.5175 48.4785 69.0129 47.8643 69.0129H5.99316C5.37888 69.0129 4.88477 68.5175 4.88477 67.9124V12.7122C4.88499 12.1072 5.37902 11.6125 5.99316 11.6125Z" fill="#EBECE9" stroke="#7E8379"/>
<path d="M18.5835 55.5306H44.7939M18.5835 25.1306H44.7939H18.5835ZM8.93555 22.3306H14.3932V27.7611H8.93555V22.3306ZM8.93555 32.5306H14.3932V37.9611H8.93555V32.5306ZM8.93555 42.7306H14.3932V48.1611H8.93555V42.7306ZM8.93555 52.9306H14.3932V58.3611H8.93555V52.9306ZM18.5835 34.7306H44.7939H18.5835ZM18.5835 45.1306H44.7939H18.5835Z" stroke="#7E8379" stroke-width="2.5" stroke-linecap="round" stroke-linejoin="round"/>
<path fill-rule="evenodd" clip-rule="evenodd" d="M27.4332 1.35083C29.9745 1.35083 32.0346 3.40069 32.0346 5.92933H39.1132C39.5573 5.92933 39.9172 6.2875 39.9172 6.72933V9.13203C39.9172 10.9008 38.4762 12.3347 36.6985 12.3347H18.1679C16.3903 12.3347 14.9492 10.9008 14.9492 9.13203V6.72933C14.9492 6.2875 15.3092 5.92933 15.7532 5.92933H22.8318C22.8318 3.40069 24.8919 1.35083 27.4332 1.35083Z" stroke="#7E8379" stroke-width="2.5" stroke-linejoin="round"/>
<path d="M27.4355 4.54468C28.3987 4.54468 29.1758 5.32091 29.1758 6.27319C29.1758 6.67829 29.3489 7.07506 29.4795 7.36304C29.6322 7.69979 29.74 7.91873 29.7734 8.10718L29.8467 8.51929H37.0449C36.8295 9.2238 36.1709 9.73901 35.3887 9.73901H19.5586C18.7763 9.73896 18.1177 9.22383 17.9023 8.51929H25.0254L25.0986 8.10718C25.1321 7.91873 25.2389 7.69979 25.3916 7.36304C25.5222 7.07504 25.6963 6.67839 25.6963 6.27319C25.6963 5.321 26.4725 4.54483 27.4355 4.54468Z" fill="#EBECE9" stroke="#7E8379"/>
</svg>
